# File created by Blade
# Date/Time:  Tue Jan 27 19:14:06 2015
# Frame Rate: 120.000 fps
#------------------------------------------------------
:FULLY-SPECIFIED
:DEGREES
1972
root 4.364682 32.436377 0.574340 -4.139773 8.342058 0.986177
Spine -1.643785 9.045135 -3.176163
Head 11.408519 -21.488721 -1.639128
LeftShoulder -5.494565 -8.667121 24.801563
LeftArm -4.436297 39.034611 -103.898805
LeftForeArm 2.816158 -0.000000 11.964463
LeftHand 10.191622 0.000000 -7.001548
LeftHandThumb1 -26.253704 0.000000 33.147579
RightShoulder -13.913357 11.653558 -52.404115
RightArm 84.350094 59.063712 100.857773
RightForeArm 34.894859 -0.000000 111.967839
RightHand 29.648622 -0.000000 -10.577039
RightHandThumb1 -24.326973 -0.000000 -32.862282
LeftUpLeg 9.230826 -4.912468 -1.731040
LeftLeg 2.137106 -0.000000 -0.000000
LeftFoot -14.437010 8.236376 -21.514961
LeftToeBase 19.215792 -0.000000 -0.000000
RightUpLeg 10.487356 -3.684435 2.335951
RightLeg -0.159490 -0.000000 0.000000
RightFoot -13.179763 -16.602761 15.518050
RightToeBase 11.446736 -0.000000 -0.000000
1973
root 4.364910 32.436903 0.573636 -4.132401 8.356912 0.985201
Spine -1.655145 9.013737 -3.166716
Head 11.386838 -21.408036 -1.569036
LeftShoulder -5.483793 -8.614438 24.842679
LeftArm -4.422275 38.923064 -103.920957
LeftForeArm 2.975146 0.000000 11.858179
LeftHand 10.103047 0.000000 -7.712164
LeftHandThumb1 -26.253704 0.000000 33.147579
RightShoulder -13.944818 11.637606 -52.389976
RightArm 84.313618 59.057995 100.818744
RightForeArm 34.918738 -0.000000 111.957749
RightHand 29.629393 -0.000000 -10.580351
RightHandThumb1 -24.326973 -0.000000 -32.862282
LeftUpLeg 9.220086 -4.892473 -1.724272
LeftLeg 2.140069 -0.000000 -0.000000
LeftFoot -14.437637 8.214973 -21.482118
LeftToeBase 19.308377 -0.000000 -0.000000
RightUpLeg 10.482023 -3.684815 2.337901
RightLeg -0.161556 -0.000000 0.000000
RightFoot -13.179269 -16.609475 15.523551
RightToeBase 11.384530 -0.000000 -0.000000
1974
root 4.366077 32.437234 0.573162 -4.131278 8.377653 0.990508
Spine -1.657462 8.967601 -3.157870
Head 11.363009 -21.314275 -1.516709
LeftShoulder -5.478920 -8.543039 24.874354
LeftArm -4.422260 38.913721 -103.927664
LeftForeArm 2.951531 -0.000000 11.811125
LeftHand 10.140980 -0.000000 -7.806663
LeftHandThumb1 -26.253704 0.000000 33.147579
RightShoulder -13.972405 11.590948 -52.374091
RightArm 84.324338 59.052042 100.817150
RightForeArm 34.948460 -0.000000 111.959371
RightHand 29.653651 -0.000000 -10.571941
RightHandThumb1 -24.326973 -0.000000 -32.862282
LeftUpLeg 9.216831 -4.913233 -1.733025
LeftLeg 2.137198 -0.000000 -0.000000
LeftFoot -14.414818 8.210849 -21.504438
LeftToeBase 19.227238 -0.000000 -0.000000
RightUpLeg 10.488776 -3.697558 2.330099
RightLeg -0.172897 -0.000000 0.000000
RightFoot -13.167852 -16.615999 15.522288
RightToeBase 11.394832 -0.000000 -0.000000
1975
root 4.365837 32.437341 0.573528 -4.134160 8.384125 0.989541
Spine -1.660527 8.924230 -3.138187
Head 11.348280 -21.229275 -1.476927
LeftShoulder -5.465193 -8.537460 24.907867
LeftArm -4.544479 38.917670 -103.987097
LeftForeArm 2.898402 -0.000000 11.825566
LeftHand 10.090523 -0.000000 -7.728400
LeftHandThumb1 -26.253704 0.000000 33.147579
RightShoulder -13.991542 11.577779 -52.376109
RightArm 84.233289 59.065091 100.728342
RightForeArm 34.969058 -0.000000 111.983226
RightHand 29.667885 -0.000000 -10.575864
RightHandThumb1 -24.326973 -0.000000 -32.862282
LeftUpLeg 9.216116 -4.932888 -1.734972
LeftLeg 2.156233 -0.000000 -0.000000
LeftFoot -14.416231 8.201187 -21.445444
LeftToeBase 19.137205 -0.000000 -0.000000
RightUpLeg 10.499508 -3.689486 2.333612
RightLeg -0.186074 -0.000000 0.000000
RightFoot -13.163829 -16.632922 15.515159
RightToeBase 11.430682 -0.000000 -0.000000
1976
root 4.368029 32.437574 0.575386 -4.150268 8.377283 0.992220
Spine -1.647528 8.896229 -3.119432
Head 11.338010 -21.158547 -1.413290
LeftShoulder -5.450112 -8.507362 24.945055
LeftArm -4.587122 38.863631 -104.023380
LeftForeArm 2.938293 -0.000000 11.748497
LeftHand 10.043192 -0.000000 -7.798552
LeftHandThumb1 -26.253704 0.000000 33.147579
RightShoulder -14.013192 11.530775 -52.353416
RightArm 84.231354 59.071440 100.701731
RightForeArm 35.005807 -0.000000 112.017820
RightHand 29.665950 -0.000000 -10.586873
RightHandThumb1 -24.326973 -0.000000 -32.862282
LeftUpLeg 9.225791 -4.976369 -1.751164
LeftLeg 2.180169 -0.000000 -0.000000
LeftFoot -14.446686 8.221786 -21.629970
LeftToeBase 19.096296 -0.000000 -0.000000
RightUpLeg 10.523632 -3.664005 2.329963
RightLeg -0.193202 -0.000000 0.000000
RightFoot -13.180624 -16.650103 15.536545
RightToeBase 11.466871 -0.000000 -0.000000
1977
root 4.376571 32.437219 0.586313 -4.234911 8.314006 1.013512
Spine -1.572735 8.909696 -3.070488
Head 11.340124 -21.052036 -1.411859
LeftShoulder -5.481394 -8.395075 24.964652
LeftArm -4.557767 38.944830 -104.013940
LeftForeArm 2.923612 -0.000000 11.676766
LeftHand 10.057024 -0.000000 -7.941763
LeftHandThumb1 -26.253704 0.000000 33.147579
RightShoulder -14.029557 11.510529 -52.372332
RightArm 84.185716 59.058574 100.639261
RightForeArm 35.044821 -0.000000 112.044416
RightHand 29.725542 -0.000000 -10.500571
RightHandThumb1 -24.326973 -0.000000 -32.862282
LeftUpLeg 9.376930 -5.122180 -1.824844
LeftLeg 2.128507 -0.000000 -0.000000
LeftFoot -14.501957 8.409798 -21.544807
LeftToeBase 19.180418 -0.000000 -0.000000
RightUpLeg 10.644979 -3.647732 2.282658
RightLeg -0.227193 -0.000000 0.000000
RightFoot -13.179266 -16.581566 15.553455
RightToeBase 11.466962 -0.000000 -0.000000
1978
root 4.387422 32.436773 0.596842 -4.324855 8.248069 1.043488
Spine -1.490710 8.908156 -3.027207
Head 11.324894 -20.927802 -1.422868
LeftShoulder -5.499680 -8.341002 24.981554
LeftArm -4.610190 38.972090 -104.053017
LeftForeArm 2.907020 -0.000000 11.593389
LeftHand 10.036612 -0.000000 -7.857684
LeftHandThumb1 -26.253704 0.000000 33.147579
RightShoulder -14.025591 11.436854 -52.362049
RightArm 84.277148 59.040718 100.686573
RightForeArm 35.041943 -0.000000 112.085893
RightHand 29.699538 -0.000000 -10.513499
RightHandThumb1 -24.326973 -0.000000 -32.862282
LeftUpLeg 9.482316 -5.033918 -1.868140
LeftLeg 2.157163 -0.000000 -0.000000
LeftFoot -14.520488 8.378391 -21.623805
LeftToeBase 19.266744 -0.000000 -0.000000
RightUpLeg 10.767081 -3.633288 2.223461
RightLeg -0.252669 -0.000000 0.000000
RightFoot -13.173833 -16.514299 15.547976
RightToeBase 11.371747 -0.000000 -0.000000
1979
root 4.387749 32.436655 0.597540 -4.337536 8.226685 1.045058
Spine -1.483578 8.869660 -3.009909
Head 11.305825 -20.871505 -1.333710
LeftShoulder -5.478489 -8.318962 25.017194
LeftArm -4.673114 39.005386 -104.086767
LeftForeArm 2.818840 0.000000 11.483495
LeftHand 10.204394 -0.000000 -7.244864
LeftHandThumb1 -26.253704 0.000000 33.147579
RightShoulder -14.035852 11.386563 -52.311813
RightArm 84.344800 59.014433 100.706123
RightForeArm 35.009885 0.000000 112.118010
RightHand 29.693025 -0.000000 -10.506648
RightHandThumb1 -24.326973 -0.000000 -32.862282
LeftUpLeg 9.443027 -4.769766 -1.824771
LeftLeg 2.261105 -0.000000 -0.000000
LeftFoot -14.459304 8.112718 -21.665101
LeftToeBase 19.062602 -0.000000 -0.000000
RightUpLeg 10.773606 -3.625398 2.219321
RightLeg -0.239568 -0.000000 0.000000
RightFoot -13.180918 -16.498864 15.557722
RightToeBase 11.383303 -0.000000 -0.000000
1980
root 4.388290 32.435746 0.600045 -4.366409 8.184378 1.033195
Spine -1.469186 8.835308 -2.956854
Head 11.297933 -20.825450 -1.294112
LeftShoulder -5.473328 -8.309639 25.044916
LeftArm -4.745902 39.023221 -104.124529
LeftForeArm 2.804939 -0.000000 11.353983
LeftHand 10.205764 -0.000000 -7.289848
LeftHandThumb1 -26.253704 0.000000 33.147579
RightShoulder -14.028847 11.397225 -52.305682
RightArm 84.283414 59.014062 100.635825
RightForeArm 34.967164 -0.000000 112.153895
RightHand 29.693428 0.000000 -10.452224
RightHandThumb1 -24.326973 -0.000000 -32.862282
LeftUpLeg 9.475055 -4.748805 -1.815819
LeftLeg 2.275246 -0.000000 -0.000000
LeftFoot -14.494323 8.102144 -21.696436
LeftToeBase 19.101987 -0.000000 -0.000000
RightUpLeg 10.793513 -3.621953 2.226631
RightLeg -0.225654 -0.000000 0.000000
RightFoot -13.177614 -16.466923 15.533134
RightToeBase 11.434108 -0.000000 -0.000000
